# xmcd CD database file
#
# Track frame offsets:
#	150
#	27430
#	43963
#	65058
#	90433
#	112625
#	127775
#	145645
#	166155
#
# Disc length: 2402 seconds
#
# Revision: 2
# Processed by: cddbd v1.5PL3 Copyright (c) Steve Scherf et al.
# Submitted via: CDex 1.51
#
DISCID=6b096009
DTITLE=Taj Mahal - Live and Direct
DYEAR=1990
DGENRE=Blues
TTITLE0=Jorge Ben
TTITLE1=Reggae #1
TTITLE2=You re Gonna Need Somebody
TTITLE3=Little Brown Dog
TTITLE4=Take A Giant Step
TTITLE5=L-O-V-E, Love
TTITLE6=And Who?
TTITLE7=Suva Serenade
TTITLE8=Airplay
EXTD=YEAR: 1990
EXTT0=
EXTT1=
EXTT2=
EXTT3=
EXTT4=
EXTT5=
EXTT6=
EXTT7=
EXTT8=
PLAYORDER=
